<?xml version="1.0" standalone="no"?>
<svg xmlns:xlink="http://www.w3.org/1999/xlink" id="wave" style="transform:rotate(0deg); transition: 0.3s" viewBox="0 0 1440 490" version="1.1" xmlns="http://www.w3.org/2000/svg"><defs><linearGradient id="sw-gradient-0" x1="0" x2="0" y1="1" y2="0"><stop stop-color="rgba(0, 72.169, 132.016, 1)" offset="0%"/><stop stop-color="rgba(0, 82, 150, 1)" offset="100%"/></linearGradient></defs><path style="transform:translate(0, 0px); opacity:1" fill="url(#sw-gradient-0)" d="M0,147L60,179.7C120,212,240,278,360,326.7C480,376,600,408,720,392C840,376,960,310,1080,310.3C1200,310,1320,376,1440,408.3C1560,441,1680,441,1800,367.5C1920,294,2040,147,2160,106.2C2280,65,2400,131,2520,147C2640,163,2760,131,2880,106.2C3000,82,3120,65,3240,81.7C3360,98,3480,147,3600,196C3720,245,3840,294,3960,334.8C4080,376,4200,408,4320,424.7C4440,441,4560,441,4680,392C4800,343,4920,245,5040,171.5C5160,98,5280,49,5400,24.5C5520,0,5640,0,5760,49C5880,98,6000,196,6120,245C6240,294,6360,294,6480,285.8C6600,278,6720,261,6840,228.7C6960,196,7080,147,7200,155.2C7320,163,7440,229,7560,253.2C7680,278,7800,261,7920,220.5C8040,180,8160,114,8280,114.3C8400,114,8520,180,8580,212.3L8640,245L8640,490L8580,490C8520,490,8400,490,8280,490C8160,490,8040,490,7920,490C7800,490,7680,490,7560,490C7440,490,7320,490,7200,490C7080,490,6960,490,6840,490C6720,490,6600,490,6480,490C6360,490,6240,490,6120,490C6000,490,5880,490,5760,490C5640,490,5520,490,5400,490C5280,490,5160,490,5040,490C4920,490,4800,490,4680,490C4560,490,4440,490,4320,490C4200,490,4080,490,3960,490C3840,490,3720,490,3600,490C3480,490,3360,490,3240,490C3120,490,3000,490,2880,490C2760,490,2640,490,2520,490C2400,490,2280,490,2160,490C2040,490,1920,490,1800,490C1680,490,1560,490,1440,490C1320,490,1200,490,1080,490C960,490,840,490,720,490C600,490,480,490,360,490C240,490,120,490,60,490L0,490Z"/></svg>