<?xml version="1.0" standalone="no"?>
<svg xmlns:xlink="http://www.w3.org/1999/xlink" id="wave" style="transform:rotate(0deg); transition: 0.3s" viewBox="0 0 1440 490" version="1.1" xmlns="http://www.w3.org/2000/svg"><defs><linearGradient id="sw-gradient-0" x1="0" x2="0" y1="1" y2="0"><stop stop-color="rgba(0, 72.169, 132.016, 1)" offset="0%"/><stop stop-color="rgba(0, 82, 150, 1)" offset="100%"/></linearGradient></defs><path style="transform:translate(0, 0px); opacity:1" fill="url(#sw-gradient-0)" d="M0,294L48,318.5C96,343,192,392,288,416.5C384,441,480,441,576,416.5C672,392,768,343,864,318.5C960,294,1056,294,1152,269.5C1248,245,1344,196,1440,171.5C1536,147,1632,147,1728,196C1824,245,1920,343,2016,334.8C2112,327,2208,212,2304,204.2C2400,196,2496,294,2592,351.2C2688,408,2784,425,2880,424.7C2976,425,3072,408,3168,351.2C3264,294,3360,196,3456,187.8C3552,180,3648,261,3744,245C3840,229,3936,114,4032,98C4128,82,4224,163,4320,163.3C4416,163,4512,82,4608,65.3C4704,49,4800,98,4896,130.7C4992,163,5088,180,5184,187.8C5280,196,5376,196,5472,196C5568,196,5664,196,5760,212.3C5856,229,5952,261,6048,269.5C6144,278,6240,261,6336,228.7C6432,196,6528,147,6624,114.3C6720,82,6816,65,6864,57.2L6912,49L6912,490L6864,490C6816,490,6720,490,6624,490C6528,490,6432,490,6336,490C6240,490,6144,490,6048,490C5952,490,5856,490,5760,490C5664,490,5568,490,5472,490C5376,490,5280,490,5184,490C5088,490,4992,490,4896,490C4800,490,4704,490,4608,490C4512,490,4416,490,4320,490C4224,490,4128,490,4032,490C3936,490,3840,490,3744,490C3648,490,3552,490,3456,490C3360,490,3264,490,3168,490C3072,490,2976,490,2880,490C2784,490,2688,490,2592,490C2496,490,2400,490,2304,490C2208,490,2112,490,2016,490C1920,490,1824,490,1728,490C1632,490,1536,490,1440,490C1344,490,1248,490,1152,490C1056,490,960,490,864,490C768,490,672,490,576,490C480,490,384,490,288,490C192,490,96,490,48,490L0,490Z"/></svg>